<mxfile host="app.diagrams.net" modified="2021-01-05T08:46:12.037Z" agent="5.0 (Windows)" etag="EPjgAVGvlfSZXCMMYxu3" version="14.1.8" type="github">
  <diagram id="iEpiV-PVecNgMLjgpmwb" name="Page-1">
    <mxGraphModel dx="1422" dy="763" grid="1" gridSize="10" guides="1" tooltips="1" connect="1" arrows="1" fold="1" page="1" pageScale="1" pageWidth="827" pageHeight="1169" math="0" shadow="0">
      <root>
        <mxCell id="0" />
        <mxCell id="1" parent="0" />
        <mxCell id="YZxfeIc7j0CaxUorXPUC-63" value="" style="ellipse;html=1;shape=startState;fillColor=#000000;strokeColor=#ff0000;" vertex="1" parent="1">
          <mxGeometry x="399" y="70" width="30" height="30" as="geometry" />
        </mxCell>
        <mxCell id="YZxfeIc7j0CaxUorXPUC-64" value="" style="edgeStyle=orthogonalEdgeStyle;html=1;verticalAlign=bottom;endArrow=open;endSize=8;strokeColor=#ff0000;" edge="1" source="YZxfeIc7j0CaxUorXPUC-63" parent="1">
          <mxGeometry relative="1" as="geometry">
            <mxPoint x="414" y="160" as="targetPoint" />
          </mxGeometry>
        </mxCell>
        <mxCell id="YZxfeIc7j0CaxUorXPUC-65" value="&amp;nbsp;user speak" style="rounded=1;whiteSpace=wrap;html=1;arcSize=40;fontColor=#000000;fillColor=#ffffc0;strokeColor=#ff0000;" vertex="1" parent="1">
          <mxGeometry x="354" y="160" width="120" height="40" as="geometry" />
        </mxCell>
        <mxCell id="YZxfeIc7j0CaxUorXPUC-66" value="" style="edgeStyle=orthogonalEdgeStyle;html=1;verticalAlign=bottom;endArrow=open;endSize=8;strokeColor=#ff0000;" edge="1" source="YZxfeIc7j0CaxUorXPUC-65" parent="1">
          <mxGeometry relative="1" as="geometry">
            <mxPoint x="414" y="260" as="targetPoint" />
          </mxGeometry>
        </mxCell>
        <mxCell id="YZxfeIc7j0CaxUorXPUC-74" value="Recogniton" style="rhombus;whiteSpace=wrap;html=1;fillColor=#ffffc0;strokeColor=#ff0000;" vertex="1" parent="1">
          <mxGeometry x="336" y="260" width="156" height="60" as="geometry" />
        </mxCell>
        <mxCell id="YZxfeIc7j0CaxUorXPUC-75" value="no" style="edgeStyle=orthogonalEdgeStyle;html=1;align=left;verticalAlign=bottom;endArrow=open;endSize=8;strokeColor=#ff0000;" edge="1" source="YZxfeIc7j0CaxUorXPUC-74" parent="1">
          <mxGeometry x="1" y="-22" relative="1" as="geometry">
            <mxPoint x="474" y="180" as="targetPoint" />
            <Array as="points">
              <mxPoint x="620" y="290" />
              <mxPoint x="620" y="180" />
              <mxPoint x="474" y="180" />
            </Array>
            <mxPoint x="20" y="-12" as="offset" />
          </mxGeometry>
        </mxCell>
        <mxCell id="YZxfeIc7j0CaxUorXPUC-76" value="yes" style="edgeStyle=orthogonalEdgeStyle;html=1;align=left;verticalAlign=top;endArrow=open;endSize=8;strokeColor=#ff0000;" edge="1" source="YZxfeIc7j0CaxUorXPUC-74" parent="1">
          <mxGeometry x="-1" relative="1" as="geometry">
            <mxPoint x="414" y="370" as="targetPoint" />
            <Array as="points">
              <mxPoint x="414" y="360" />
            </Array>
          </mxGeometry>
        </mxCell>
        <mxCell id="YZxfeIc7j0CaxUorXPUC-77" value="Engine" style="rounded=1;whiteSpace=wrap;html=1;arcSize=40;fontColor=#000000;fillColor=#ffffc0;strokeColor=#ff0000;" vertex="1" parent="1">
          <mxGeometry x="140" y="270" width="120" height="40" as="geometry" />
        </mxCell>
        <mxCell id="YZxfeIc7j0CaxUorXPUC-78" value="" style="edgeStyle=orthogonalEdgeStyle;html=1;verticalAlign=bottom;endArrow=open;endSize=8;strokeColor=#ff0000;entryX=0;entryY=0.5;entryDx=0;entryDy=0;" edge="1" source="YZxfeIc7j0CaxUorXPUC-77" parent="1" target="YZxfeIc7j0CaxUorXPUC-74">
          <mxGeometry relative="1" as="geometry">
            <mxPoint x="370" y="280" as="targetPoint" />
          </mxGeometry>
        </mxCell>
        <mxCell id="YZxfeIc7j0CaxUorXPUC-79" value="Execut order" style="rhombus;whiteSpace=wrap;html=1;fillColor=#ffffc0;strokeColor=#ff0000;" vertex="1" parent="1">
          <mxGeometry x="341" y="370" width="146" height="70" as="geometry" />
        </mxCell>
        <mxCell id="YZxfeIc7j0CaxUorXPUC-80" value="no" style="edgeStyle=orthogonalEdgeStyle;html=1;align=left;verticalAlign=bottom;endArrow=open;endSize=8;strokeColor=#ff0000;entryX=0;entryY=0.5;entryDx=0;entryDy=0;" edge="1" source="YZxfeIc7j0CaxUorXPUC-79" parent="1" target="YZxfeIc7j0CaxUorXPUC-83">
          <mxGeometry x="-1" relative="1" as="geometry">
            <mxPoint x="530" y="405" as="targetPoint" />
            <Array as="points" />
          </mxGeometry>
        </mxCell>
        <mxCell id="YZxfeIc7j0CaxUorXPUC-81" value="yes" style="edgeStyle=orthogonalEdgeStyle;html=1;align=left;verticalAlign=top;endArrow=open;endSize=8;strokeColor=#ff0000;" edge="1" source="YZxfeIc7j0CaxUorXPUC-79" parent="1">
          <mxGeometry x="-1" relative="1" as="geometry">
            <mxPoint x="414" y="520" as="targetPoint" />
          </mxGeometry>
        </mxCell>
        <mxCell id="YZxfeIc7j0CaxUorXPUC-83" value="Malfunction" style="rounded=1;whiteSpace=wrap;html=1;arcSize=40;fontColor=#000000;fillColor=#ffffc0;strokeColor=#ff0000;" vertex="1" parent="1">
          <mxGeometry x="540" y="385" width="120" height="40" as="geometry" />
        </mxCell>
        <mxCell id="YZxfeIc7j0CaxUorXPUC-84" value="" style="edgeStyle=orthogonalEdgeStyle;html=1;verticalAlign=bottom;endArrow=open;endSize=8;strokeColor=#ff0000;" edge="1" source="YZxfeIc7j0CaxUorXPUC-83" parent="1">
          <mxGeometry relative="1" as="geometry">
            <mxPoint x="600" y="290" as="targetPoint" />
          </mxGeometry>
        </mxCell>
        <mxCell id="YZxfeIc7j0CaxUorXPUC-85" value="executive function" style="rounded=1;whiteSpace=wrap;html=1;arcSize=40;fontColor=#000000;fillColor=#ffffc0;strokeColor=#ff0000;" vertex="1" parent="1">
          <mxGeometry x="354" y="520" width="120" height="40" as="geometry" />
        </mxCell>
        <mxCell id="YZxfeIc7j0CaxUorXPUC-87" value="" style="ellipse;html=1;shape=endState;fillColor=#000000;strokeColor=#ff0000;" vertex="1" parent="1">
          <mxGeometry x="399" y="610" width="30" height="30" as="geometry" />
        </mxCell>
        <mxCell id="YZxfeIc7j0CaxUorXPUC-89" value="" style="edgeStyle=orthogonalEdgeStyle;html=1;verticalAlign=bottom;endArrow=open;endSize=8;strokeColor=#ff0000;" edge="1" parent="1">
          <mxGeometry relative="1" as="geometry">
            <mxPoint x="414" y="615" as="targetPoint" />
            <mxPoint x="414" y="555" as="sourcePoint" />
            <Array as="points">
              <mxPoint x="414" y="605" />
              <mxPoint x="414" y="605" />
            </Array>
          </mxGeometry>
        </mxCell>
      </root>
    </mxGraphModel>
  </diagram>
</mxfile>
